# xmcd
#
# Track frame offsets: 
#        150
#        32192
#        47795
#        60955
#        87605
#        109097
#        120755
#        130345
#        149892
#        167352
#        186532
#        205405
#        219952
#        237777
#        248677
#        263090
#
# Disc length: 3936 seconds
#
# Revision: 2
# Processed by: cddbd v1.5.2PL0 Copyright (c) Steve Scherf et al.
# Submitted via: ExactAudioCopy v1.0b3
#
DISCID=e60f5e10
DTITLE=Monaco Bagage - Import Export
DYEAR=2003
DGENRE=Folk
TTITLE0=Woiza
TTITLE1=D'Lola rennt
TTITLE2=Schwing di
TTITLE3=Beziehungsweise
TTITLE4=ABC
TTITLE5=Wildbach
TTITLE6=Fivefacher
TTITLE7=Chansonette
TTITLE8=Holder Jüngling
TTITLE9='s Gwissen
TTITLE10=Arsch net hoch
TTITLE11=Maiandacht
TTITLE12=G'stanzl
TTITLE13=Adabei
TTITLE14=Portuga Polka
TTITLE15=Aziow
EXTD=
EXTT0=
EXTT1=
EXTT2=
EXTT3=
EXTT4=
EXTT5=
EXTT6=
EXTT7=
EXTT8=
EXTT9=
EXTT10=
EXTT11=
EXTT12=
EXTT13=
EXTT14=
EXTT15=
PLAYORDER=
